<?xml version="1.0" encoding="UTF-8" standalone="no"?>
<svg
   xmlns:dc="http://purl.org/dc/elements/1.1/"
   xmlns:cc="http://creativecommons.org/ns#"
   xmlns:rdf="http://www.w3.org/1999/02/22-rdf-syntax-ns#"
   xmlns:svg="http://www.w3.org/2000/svg"
   xmlns="http://www.w3.org/2000/svg"
   xmlns:sodipodi="http://sodipodi.sourceforge.net/DTD/sodipodi-0.dtd"
   xmlns:inkscape="http://www.inkscape.org/namespaces/inkscape"
   inkscape:version="1.0.2-2 (e86c870879, 2021-01-15)"
   sodipodi:docname="optimal-white-logo-only.svg"
   viewBox="0 0 592.94555 200.38859"
   height="200.3886"
   width="592.94556"
   xml:space="preserve"
   id="svg10"
   version="1.1"><metadata
     id="metadata16"><rdf:RDF><cc:Work
         rdf:about=""><dc:format>image/svg+xml</dc:format><dc:type
           rdf:resource="http://purl.org/dc/dcmitype/StillImage" /><dc:title /></cc:Work></rdf:RDF></metadata><defs
     id="defs14"><clipPath
       id="clipPath26"
       clipPathUnits="userSpaceOnUse"><path
         id="path24"
         d="M 0,612 H 792 V 0 H 0 Z" /></clipPath><clipPath
       clipPathUnits="userSpaceOnUse"
       id="clipPath138"><rect
         style="fill:#0000ff;fill-rule:evenodd;stroke-width:0.75"
         id="rect140"
         width="616.24359"
         height="180.31224"
         x="98.086067"
         y="-430.83365"
         transform="scale(1,-1)" /></clipPath><clipPath
       clipPathUnits="userSpaceOnUse"
       id="clipPath144"><rect
         style="fill:#000000;stroke-width:0.756938"
         id="rect146"
         width="607.875"
         height="160.875"
         x="103.2711"
         y="-412.08365"
         transform="scale(1,-1)" /></clipPath></defs><sodipodi:namedview
     inkscape:current-layer="g18"
     inkscape:window-maximized="1"
     inkscape:window-y="-11"
     inkscape:window-x="-11"
     inkscape:cy="162.57892"
     inkscape:cx="266.82743"
     inkscape:zoom="4"
     showgrid="false"
     id="namedview12"
     inkscape:window-height="2066"
     inkscape:window-width="3840"
     inkscape:pageshadow="2"
     inkscape:pageopacity="0"
     guidetolerance="10"
     gridtolerance="10"
     objecttolerance="10"
     borderopacity="1"
     bordercolor="#666666"
     pagecolor="#ffffff"
     inkscape:document-rotation="0" /><g
     transform="matrix(1.3333333,0,0,-1.3333333,-199.74554,562.95823)"
     inkscape:label="optimalfitness logo"
     inkscape:groupmode="layer"
     id="g18"><g
       transform="translate(-19.490443,10.135034)"
       id="g20"
       clip-path="url(#clipPath144)"
       style="fill:#ffffff"><g
         clip-path="url(#clipPath26)"
         id="g22"
         style="fill:#ffffff"><g
           transform="translate(421.137,326.8269)"
           id="g28"
           style="fill:#ffffff" /><g
           transform="translate(405.7063,342.2957)"
           id="g32"
           style="fill:#ffffff" /><g
           transform="translate(137.3376,329.946)"
           id="g36"
           style="fill:#ffffff" /><g
           transform="translate(674.6262,329.825)"
           id="g40"
           style="fill:#ffffff" /><g
           transform="translate(609.6008,351.3274)"
           id="g44"
           style="fill:#ffffff"><path
             id="path46"
             style="fill:#ffffff;fill-opacity:1;fill-rule:nonzero;stroke:none"
             d="m 0,0 c -1.103,0.601 -1.653,0.904 -2.204,1.146 -0.551,0.248 -1.103,0.441 -7.715,3.45 -7.164,3.003 -20.39,8.828 -32.513,13.694 -11.573,4.866 -22.043,8.779 -31.962,12.228 -9.368,3.45 -18.185,6.437 -27.553,9.192 -9.368,2.755 -19.287,5.285 -27.002,6.822 -8.266,1.532 -13.777,2.083 -19.287,2.315 -4.96,0.231 -9.919,0.148 -13.226,-0.105 -3.307,-0.259 -5.511,-0.678 -7.164,-1.295 -1.653,-0.612 -2.755,-1.417 -3.857,-2.408 -1.103,-0.992 -2.204,-2.171 -3.307,-3.66 -1.102,-1.493 -1.653,-3.3 -2.204,-5.174 -0.551,-2.204 -1.103,-4.419 -1.653,-5.913 0,-1.493 0,-2.259 -0.551,-2.937 v -1.846 c -1.103,-6.811 -1.654,-13.655 -1.654,-21.376 -0.55,-7.72 -0.55,-16.322 -0.55,-27.686 0.55,-11.362 1.653,-25.481 2.204,-33.939 0.551,-8.459 1.101,-11.248 1.653,-13.502 0.551,-2.248 1.102,-3.956 1.653,-5.472 0.551,-1.515 1.102,-2.838 1.654,-4.116 0.551,-0.838 0.551,-1.653 1.101,-2.172 0.551,-0.92 1.103,-1.058 1.103,-1.35 1.101,-0.544 1.653,-0.639 2.755,-0.324 0.55,0.12 0.55,0.545 1.102,0.948 v 0.76 c 0,0.424 0.551,1.091 0.551,1.554 0,0.468 0,0.738 0.551,1.52 0,0.783 0.552,2.078 1.102,3.72 0.551,1.643 1.102,3.632 1.654,4.96 0.55,1.323 0.55,1.989 1.101,2.623 3.307,7.274 7.715,14.3 11.022,19.337 3.857,5.037 6.613,8.078 9.368,10.58 2.756,2.503 5.511,4.464 8.266,6.078 2.755,1.62 5.51,2.893 8.266,3.924 2.755,1.03 6.062,1.813 8.817,2.331 1.102,0.143 1.653,0.264 2.755,0.391 1.102,0.127 2.204,0.26 4.409,0.431 2.204,0.17 5.51,0.385 7.164,0.528 2.204,0.149 2.755,0.221 3.306,0.298 0.551,0.132 0.551,0.248 1.102,0.446 1.102,0.54 1.102,1.339 1.102,2.116 0,0.645 0,1.35 -0.55,1.985 -0.552,0.187 -0.552,0.269 -0.552,0.369 -0.551,0.054 -0.551,0.115 -1.102,0.182 -0.551,0.065 -1.102,0.138 -1.653,0.186 -4.408,0.513 -8.266,1.07 -11.022,1.477 -3.306,0.413 -4.408,0.673 -6.061,0.921 -1.103,0.242 -2.204,0.463 -3.307,0.711 -2.755,0.749 -6.061,1.851 -8.817,3.102 -2.204,1.245 -4.408,2.645 -6.062,4.177 -1.653,1.538 -2.754,3.213 -3.857,5.13 -1.102,1.918 -1.653,4.079 -2.204,6.685 -0.551,2.612 -1.103,5.665 -1.103,8.701 0,1.201 0.552,2.397 0.552,3.361 0,0.965 0,1.692 0.551,2.31 0,0.617 0.551,1.118 0.551,1.565 0,0.446 0.551,0.826 0.551,1.173 0.551,0.348 0.551,0.656 1.102,0.943 0.552,0.286 0.552,0.551 1.103,0.793 0.55,0.243 1.101,0.464 1.653,0.678 0.551,0.21 1.101,0.402 2.204,0.573 1.102,0.171 2.204,0.314 4.408,0.424 2.204,0.116 5.511,0.2 8.818,0.133 3.857,-0.071 7.714,-0.292 11.572,-0.749 4.408,-0.458 8.817,-1.153 14.328,-2.15 5.51,-1.003 11.572,-2.309 18.184,-3.945 7.165,-1.637 14.879,-3.604 26.452,-7.093 12.123,-3.488 27.553,-8.497 35.819,-11.186 8.817,-2.695 9.919,-3.07 11.572,-3.268 1.103,-0.198 1.654,-0.22 2.756,-0.171 1.652,0.105 3.306,0.48 4.408,1.174 1.102,0.347 1.654,0.777 2.755,1.267 C 2.755,-1.51 1.103,-0.606 0,0" /></g><g
           transform="translate(186.3826,329.8801)"
           id="g48"
           style="fill:#ffffff"><path
             id="path50"
             style="fill:#ffffff;fill-opacity:1;fill-rule:nonzero;stroke:none"
             d="m 0,0 c 0.551,-0.733 1.653,-1.455 2.755,-1.923 0.552,-0.474 1.102,-0.7 1.102,-0.882 0.552,-0.182 0.552,-0.32 1.102,-0.446 10.471,-5.622 20.94,-10.807 31.962,-15.562 11.022,-4.756 22.594,-9.083 34.166,-12.945 11.573,-3.863 23.145,-7.274 33.064,-9.793 9.92,-2.523 17.083,-4.16 23.145,-5.13 5.511,-0.965 8.817,-1.257 12.123,-1.422 3.307,-0.16 6.062,-0.193 8.267,-0.092 2.203,0.103 4.408,0.33 5.51,0.643 1.653,0.31 3.306,0.7 3.858,1.124 1.101,0.425 2.204,0.877 2.755,1.367 1.102,0.485 1.653,1.009 2.204,1.56 0.551,0.557 1.102,1.141 1.654,1.769 0.551,1.328 1.101,2.799 1.653,4.298 2.204,6.785 3.857,13.717 4.408,21.244 1.103,7.522 1.653,15.633 1.653,24.908 -0.55,9.269 -1.102,19.7 -2.755,30.011 -0.551,1.157 -0.551,2.292 -1.102,3.284 -0.551,0.992 -1.103,1.841 -1.653,2.579 -0.551,0.744 -1.103,1.383 -2.204,1.929 -1.103,0.551 -1.654,1.003 -2.756,1.344 -1.102,0.337 -2.756,0.562 -4.409,0.695 -1.653,0.132 -4.408,0.176 -6.613,0.132 -2.203,-0.049 -4.959,-0.182 -7.715,-0.43 -2.204,-0.248 -4.959,-0.606 -11.02,-1.785 -6.063,-1.18 -15.982,-3.174 -25.901,-5.847 C 94.783,37.957 83.211,34.607 69.434,29.576 55.106,24.544 38.575,17.838 28.104,13.457 17.083,9.076 12.674,7.031 9.919,5.56 6.612,4.094 4.959,3.202 3.857,2.38 2.205,1.554 1.102,0.799 0,0 Z m -17.083,-0.022 c 6.613,3.912 13.226,7.66 20.39,11.412 6.612,3.748 14.327,7.506 22.593,11.385 8.266,3.885 17.083,7.892 29.206,12.681 11.573,4.788 26.452,10.359 39.677,14.911 13.226,4.547 24.798,8.069 35.82,11.005 11.021,2.937 21.491,5.285 28.104,6.673 6.062,1.389 9.368,1.819 12.124,2.155 3.306,0.342 6.612,0.59 10.469,0.667 3.858,0.083 8.266,-0.006 11.573,-0.203 3.306,-0.205 4.959,-0.518 6.612,-0.988 1.653,-0.468 2.756,-1.091 3.858,-1.835 1.102,-0.743 2.204,-1.609 3.306,-2.623 0.552,-1.013 1.102,-2.182 1.654,-3.581 1.102,-1.4 1.102,-3.026 1.653,-4.69 0.551,-2.238 1.101,-4.48 1.101,-6.007 0.552,-1.521 0.552,-2.319 0.552,-3.003 V 46.13 c 1.101,-14.863 1.653,-29.775 1.653,-41.33 0,-11.561 -0.552,-19.767 -1.101,-27.08 -1.104,-7.306 -2.205,-13.721 -2.756,-18.378 -1.103,-4.651 -1.654,-7.549 -2.756,-9.936 -0.551,-2.385 -1.653,-4.254 -2.204,-5.841 -1.102,-1.586 -2.204,-2.893 -2.756,-4.028 -1.101,-1.136 -2.204,-2.1 -3.306,-2.948 -1.101,-0.849 -2.204,-1.581 -3.858,-2.21 -1.102,-0.633 -2.754,-1.162 -4.959,-1.581 -1.653,-0.425 -3.857,-0.734 -6.613,-0.844 -2.755,-0.11 -5.51,-0.027 -11.021,0.535 -5.511,0.556 -13.225,1.592 -22.043,3.118 -8.265,1.533 -17.634,3.555 -29.206,6.829 -11.573,3.273 -25.349,7.792 -38.575,12.376 -12.674,4.585 -24.247,9.248 -35.819,14.052 -11.021,4.806 -22.042,9.76 -32.512,14.924 -10.471,5.169 -20.39,10.542 -30.86,16.19 z" /></g><g
           transform="translate(196.302,275.5393)"
           id="g52"
           style="fill:#ffffff" /><g
           transform="translate(699.4241,329.6428)"
           id="g56"
           style="fill:#ffffff" /><g
           transform="translate(207.8743,330.0178)"
           id="g60"
           style="fill:#ffffff" /><g
           transform="translate(263.532,423.2083)"
           id="g64"
           style="fill:#ffffff" /><g
           transform="translate(305.9636,464.8694)"
           id="g68"
           style="fill:#ffffff" /><g
           transform="translate(217.2424,205.1956)"
           id="g72"
           style="fill:#ffffff" /><g
           transform="translate(315.8831,245.0657)"
           id="g76"
           style="fill:#ffffff" /><g
           transform="translate(437.1174,235.2346)"
           id="g80"
           style="fill:#ffffff" /><g
           transform="translate(374.8469,233.7795)"
           id="g84"
           style="fill:#ffffff" /><g
           transform="translate(529.1458,234.4133)"
           id="g88"
           style="fill:#ffffff" /><g
           transform="translate(537.9622,244.6467)"
           id="g92"
           style="fill:#ffffff" /><g
           transform="translate(335.1702,232.9641)"
           id="g96"
           style="fill:#ffffff" /><g
           transform="translate(323.0471,499.575)"
           id="g100"
           style="fill:#ffffff" /><g
           transform="translate(384.2151,506.491)"
           id="g104"
           style="fill:#ffffff" /><g
           transform="translate(423.3411,506.6726)"
           id="g108"
           style="fill:#ffffff" /><g
           transform="translate(423.3411,506.6726)"
           id="g112"
           style="fill:#ffffff" /><g
           transform="translate(544.5754,484.283)"
           id="g116"
           style="fill:#ffffff" /><g
           transform="translate(544.5754,484.283)"
           id="g120"
           style="fill:#ffffff" /><g
           transform="translate(531.9006,468.3074)"
           id="g124"
           style="fill:#ffffff"><path
             id="path126"
             style="fill:#ffffff;fill-opacity:1;fill-rule:nonzero;stroke:none"
             d="m 0,0 v -18.163 l -8.817,2.095 c -0.551,0.131 -1.102,0.66 -1.102,1.019 -0.552,0.959 0,1.708 1.102,2.804 z" /></g><g
           transform="translate(579.843,468.3074)"
           id="g128"
           style="fill:#ffffff" /></g></g></g></svg>
